<svg width="173" height="209" viewBox="0 0 173 209" fill="none" xmlns="http://www.w3.org/2000/svg">
<rect x="141.998" y="195.572" width="13" height="90" rx="1" transform="rotate(160 141.998 195.572)" fill="#BFBFBF"/>
<rect x="41.216" y="204.019" width="13" height="90" rx="1" transform="rotate(-160 41.216 204.019)" fill="#BFBFBF"/>
<path d="M82 41C82 63.6437 63.6437 82 41 82C18.3563 82 0 63.6437 0 41C0 18.3563 18.3563 0 41 0C63.6437 0 82 18.3563 82 41Z" fill="#BFBFBF"/>
<path d="M167 41C167 63.6437 148.644 82 126 82C103.356 82 85 63.6437 85 41C85 18.3563 103.356 0 126 0C148.644 0 167 18.3563 167 41Z" fill="#BFBFBF"/>
<circle cx="85" cy="100" r="78" fill="#FF8A08"/>
<path d="M157 100C157 139.765 124.765 172 85 172C45.2355 172 13 139.765 13 100C13 60.2355 45.2355 28 85 28C124.765 28 157 60.2355 157 100Z" fill="black"/>
<path d="M42.253 106V92.9091H47.4178C48.4064 92.9091 49.2502 93.0859 49.949 93.4396C50.6522 93.7891 51.187 94.2855 51.5534 94.929C51.9242 95.5682 52.1096 96.3203 52.1096 97.1854C52.1096 98.0547 51.9221 98.8026 51.5471 99.429C51.1721 100.051 50.6287 100.528 49.9171 100.861C49.2097 101.193 48.3532 101.359 47.3475 101.359H43.8894V99.1349H46.9C47.4284 99.1349 47.8674 99.0625 48.2168 98.9176C48.5662 98.7727 48.8262 98.5554 48.9966 98.2656C49.1713 97.9759 49.2587 97.6158 49.2587 97.1854C49.2587 96.7507 49.1713 96.3842 48.9966 96.0859C48.8262 95.7876 48.5641 95.5618 48.2104 95.4084C47.861 95.2507 47.4199 95.1719 46.8873 95.1719H45.0208V106H42.253ZM49.3226 100.043L52.5762 106H49.5208L46.3375 100.043H49.3226ZM58.3306 106.192C57.3207 106.192 56.4513 105.987 55.7227 105.578C54.9982 105.165 54.44 104.581 54.0479 103.827C53.6559 103.068 53.4599 102.171 53.4599 101.136C53.4599 100.126 53.6559 99.2393 54.0479 98.4766C54.44 97.7138 54.9918 97.1193 55.7035 96.6932C56.4194 96.267 57.2589 96.054 58.2219 96.054C58.8697 96.054 59.4727 96.1584 60.0309 96.3672C60.5934 96.5717 61.0835 96.8807 61.5011 97.294C61.9229 97.7074 62.2511 98.2273 62.4854 98.8537C62.7198 99.4759 62.837 100.205 62.837 101.04V101.788H54.5465V100.1H60.2738C60.2738 99.7081 60.1886 99.3608 60.0181 99.0582C59.8477 98.7557 59.6112 98.5192 59.3086 98.3487C59.0103 98.174 58.663 98.0866 58.2667 98.0866C57.8533 98.0866 57.4869 98.1825 57.1673 98.3743C56.8519 98.5618 56.6048 98.8153 56.4258 99.1349C56.2468 99.4503 56.1552 99.8018 56.1509 100.19V101.794C56.1509 102.28 56.2404 102.7 56.4194 103.053C56.6026 103.407 56.8604 103.68 57.1928 103.871C57.5252 104.063 57.9194 104.159 58.3754 104.159C58.6779 104.159 58.9549 104.116 59.2063 104.031C59.4577 103.946 59.6729 103.818 59.8519 103.648C60.0309 103.477 60.1673 103.268 60.261 103.021L62.7795 103.188C62.6516 103.793 62.3896 104.321 61.9933 104.773C61.6012 105.22 61.0941 105.57 60.4719 105.821C59.854 106.068 59.1403 106.192 58.3306 106.192ZM64.614 106V96.1818H67.2092V97.9141H67.3242C67.5288 97.3388 67.8697 96.8849 68.3469 96.5526C68.8242 96.2202 69.3952 96.054 70.06 96.054C70.7333 96.054 71.3065 96.2223 71.7795 96.5589C72.2525 96.8913 72.5678 97.343 72.7255 97.9141H72.8278C73.0281 97.3516 73.3903 96.902 73.9144 96.5653C74.4428 96.2244 75.0671 96.054 75.7873 96.054C76.7035 96.054 77.4471 96.3459 78.0181 96.9297C78.5934 97.5092 78.881 98.3317 78.881 99.397V106H76.1644V99.9339C76.1644 99.3885 76.0195 98.9794 75.7298 98.7067C75.44 98.4339 75.0778 98.2976 74.6431 98.2976C74.1488 98.2976 73.7631 98.4553 73.4862 98.7706C73.2092 99.0817 73.0707 99.4929 73.0707 100.004V106H70.4308V99.8764C70.4308 99.3949 70.2923 99.0114 70.0153 98.7259C69.7425 98.4403 69.3825 98.2976 68.935 98.2976C68.6325 98.2976 68.3597 98.3743 68.1168 98.5277C67.8782 98.6768 67.6886 98.8878 67.5479 99.1605C67.4073 99.429 67.337 99.7443 67.337 100.107V106H64.614ZM81.032 106V96.1818H83.755V106H81.032ZM82.3999 94.9162C81.995 94.9162 81.6477 94.782 81.358 94.5135C81.0724 94.2408 80.9297 93.9148 80.9297 93.5355C80.9297 93.1605 81.0724 92.8388 81.358 92.5703C81.6477 92.2976 81.995 92.1612 82.3999 92.1612C82.8047 92.1612 83.1499 92.2976 83.4354 92.5703C83.7251 92.8388 83.87 93.1605 83.87 93.5355C83.87 93.9148 83.7251 94.2408 83.4354 94.5135C83.1499 94.782 82.8047 94.9162 82.3999 94.9162ZM88.6593 100.324V106H85.9363V96.1818H88.5314V97.9141H88.6465C88.8638 97.343 89.2282 96.8913 89.7395 96.5589C90.2509 96.2223 90.8709 96.054 91.5996 96.054C92.2814 96.054 92.8759 96.2031 93.383 96.5014C93.8901 96.7997 94.2843 97.2259 94.5655 97.7798C94.8468 98.3295 94.9874 98.9858 94.9874 99.7486V106H92.2644V100.234C92.2686 99.6335 92.1152 99.1648 91.8042 98.8281C91.4931 98.4872 91.0648 98.3168 90.5194 98.3168C90.1529 98.3168 89.829 98.3956 89.5478 98.5533C89.2708 98.7109 89.0534 98.9411 88.8958 99.2436C88.7424 99.5419 88.6635 99.902 88.6593 100.324ZM100.751 106.16C100.006 106.16 99.3303 105.968 98.7251 105.585C98.1243 105.197 97.647 104.628 97.2933 103.878C96.9439 103.124 96.7692 102.199 96.7692 101.104C96.7692 99.9787 96.9503 99.0433 97.3125 98.2976C97.6747 97.5476 98.1563 96.9872 98.7571 96.6165C99.3622 96.2415 100.025 96.054 100.745 96.054C101.295 96.054 101.753 96.1477 102.119 96.3352C102.49 96.5185 102.788 96.7486 103.014 97.0256C103.244 97.2983 103.419 97.5668 103.538 97.831H103.621V92.9091H106.338V106H103.653V104.428H103.538C103.411 104.7 103.229 104.971 102.995 105.239C102.765 105.504 102.464 105.723 102.094 105.898C101.727 106.072 101.28 106.16 100.751 106.16ZM101.614 103.993C102.053 103.993 102.424 103.874 102.727 103.635C103.033 103.392 103.268 103.053 103.43 102.619C103.596 102.184 103.679 101.675 103.679 101.091C103.679 100.507 103.598 100 103.436 99.5696C103.274 99.1392 103.04 98.8068 102.733 98.5724C102.426 98.3381 102.053 98.2209 101.614 98.2209C101.167 98.2209 100.79 98.3423 100.483 98.5852C100.176 98.8281 99.9439 99.1648 99.7862 99.5952C99.6286 100.026 99.5497 100.524 99.5497 101.091C99.5497 101.662 99.6286 102.167 99.7862 102.606C99.9482 103.04 100.18 103.381 100.483 103.629C100.79 103.871 101.167 103.993 101.614 103.993ZM112.794 92.9091H116.207L119.812 101.705H119.966L123.571 92.9091H126.984V106H124.3V97.4794H124.191L120.803 105.936H118.975L115.587 97.4474H115.479V106H112.794V92.9091ZM133.688 106.192C132.678 106.192 131.809 105.987 131.08 105.578C130.356 105.165 129.797 104.581 129.405 103.827C129.013 103.068 128.817 102.171 128.817 101.136C128.817 100.126 129.013 99.2393 129.405 98.4766C129.797 97.7138 130.349 97.1193 131.061 96.6932C131.777 96.267 132.616 96.054 133.579 96.054C134.227 96.054 134.83 96.1584 135.388 96.3672C135.951 96.5717 136.441 96.8807 136.858 97.294C137.28 97.7074 137.608 98.2273 137.843 98.8537C138.077 99.4759 138.194 100.205 138.194 101.04V101.788H129.904V100.1H135.631C135.631 99.7081 135.546 99.3608 135.376 99.0582C135.205 98.7557 134.969 98.5192 134.666 98.3487C134.368 98.174 134.02 98.0866 133.624 98.0866C133.211 98.0866 132.844 98.1825 132.525 98.3743C132.209 98.5618 131.962 98.8153 131.783 99.1349C131.604 99.4503 131.513 99.8018 131.508 100.19V101.794C131.508 102.28 131.598 102.7 131.777 103.053C131.96 103.407 132.218 103.68 132.55 103.871C132.883 104.063 133.277 104.159 133.733 104.159C134.035 104.159 134.312 104.116 134.564 104.031C134.815 103.946 135.03 103.818 135.209 103.648C135.388 103.477 135.525 103.268 135.618 103.021L138.137 103.188C138.009 103.793 137.747 104.321 137.351 104.773C136.959 105.22 136.452 105.57 135.829 105.821C135.211 106.068 134.498 106.192 133.688 106.192Z" fill="#FF6500"/>
<mask id="path-8-inside-1_101_15" fill="white">
<ellipse cx="90" cy="196.5" rx="83" ry="12.5"/>
</mask>
<ellipse cx="90" cy="196.5" rx="83" ry="12.5" fill="white"/>
<path d="M159 196.5C159 190.625 162.899 187.829 163.015 187.744C163.506 187.383 163.341 187.621 161.781 188.177C158.832 189.227 153.783 190.414 146.605 191.495C132.466 193.624 112.446 195 90 195V223C113.394 223 134.874 221.577 150.775 219.183C158.617 218.002 165.723 216.495 171.174 214.554C173.814 213.614 176.91 212.283 179.612 210.295C181.94 208.582 187 204.101 187 196.5H159ZM90 195C67.5543 195 47.5344 193.624 33.3951 191.495C26.2171 190.414 21.1682 189.227 18.2186 188.177C16.6588 187.621 16.4941 187.383 16.9847 187.744C17.1011 187.829 21 190.625 21 196.5H-7C-7 204.101 -1.93987 208.582 0.387812 210.295C3.08969 212.283 6.18631 213.614 8.82646 214.554C14.2769 216.495 21.3831 218.002 29.2252 219.183C45.126 221.577 66.606 223 90 223V195ZM21 196.5C21 202.375 17.1011 205.171 16.9847 205.256C16.4941 205.617 16.6588 205.379 18.2186 204.823C21.1682 203.773 26.2171 202.586 33.3951 201.505C47.5344 199.376 67.5543 198 90 198V170C66.606 170 45.126 171.423 29.2252 173.817C21.3831 174.998 14.2769 176.505 8.82646 178.446C6.18631 179.386 3.08969 180.717 0.387812 182.705C-1.93987 184.418 -7 188.899 -7 196.5H21ZM90 198C112.446 198 132.466 199.376 146.605 201.505C153.783 202.586 158.832 203.773 161.781 204.823C163.341 205.379 163.506 205.617 163.015 205.256C162.899 205.171 159 202.375 159 196.5H187C187 188.899 181.94 184.418 179.612 182.705C176.91 180.717 173.814 179.386 171.174 178.446C165.723 176.505 158.617 174.998 150.775 173.817C134.874 171.423 113.394 170 90 170V198Z" fill="#262626" mask="url(#path-8-inside-1_101_15)"/>
</svg>
